<svg version="1.1" viewBox="0 0 640 400" xmlns="http://www.w3.org/2000/svg" xmlns:xlink="http://www.w3.org/1999/xlink" xmlns:svgjs="http://svgjs.dev/svgjs" matcher="0.696160648600604"><g viewBox="0 0 640 400" matcher="0.696160648600604"><g matcher="0.696160648600604"><g matcher="0.696160648600604"><g matcher="0.696160648600604"><svg viewBox="0 0 640 400" data-background-color="#010536" preserveAspectRatio="xMidYMid meet" height="400" width="640" xmlns="http://www.w3.org/2000/svg" xmlns:xlink="http://www.w3.org/1999/xlink"><rect width="640" height="400" x="0" y="0" opacity="1" fill="#737373" data-fill-palette-color="background" id="background"></rect><g id="tight-bounds" transform="matrix(1,0,0,1,123.16172284623093,160.932568359375)"><svg viewBox="0 0 393.67655430753814 78.13486328124999" height="78.13486328124999" width="393.67655430753814"><g><svg viewBox="0 0 393.67655430753814 78.13486328124999" height="78.13486328124999" width="393.67655430753814"><g><svg viewBox="0 0 393.67655430753814 78.13486328124999" height="78.13486328124999" width="393.67655430753814"><g id="textblocktransform"><svg viewBox="0 0 393.67655430753814 78.13486328124999" height="78.13486328124999" width="393.67655430753814" id="textblock"><g><svg viewBox="0 0 393.67655430753814 78.13486328124999" height="78.13486328124999" width="393.67655430753814"><g><svg><g></g><g></g></svg></g><g><svg><g></g><g><svg></svg></g></svg></g><g id="text-0"><svg viewBox="0 0 393.67655430753814 78.13486328124999" height="78.13486328124999" width="393.67655430753814"><g><svg xmlns="http://www.w3.org/2000/svg" xml:space="preserve" viewBox="7.279999732971191 10.020000457763672 85.43802642822266 74.80999755859375" x="0" y="0" height="78.13486328124999" width="89.2352457137881" class="icon-b-0" data-fill-palette-color="accent" id="b-0"><path d="M57.33 82.53v0.64h14v-0.64z m35.09-50.37L78.79 10.71c-0.13-0.41-0.521-0.69-0.96-0.69H22.17c-0.44 0-0.8 0.28-0.93 0.71L7.72 32.1c-0.2 0.13-0.44 1.88-0.44 1.88 0 8.37 8.78 3.9 12.25 3.9 0.6 0 0.73 0.95 0.73 4.39l0.01-7.31 0.06 25.89c0.28 10 1.19 3 4.17 2.99-0.62-1.33 0.01-15.78-0.07-17.31h-0.03v-9.27c0.83 1.45 2.68 2.64 4.7 2.64h11.65c1.75 0 3.26-2.07 4.01-3.25 0.75 1.18 1.89 2.29 3.27 2.85 0.62 0.26 1.28 0.4 1.98 0.4s1.36-0.14 1.98-0.4c1.39-0.56 2.539-1.66 3.27-2.85 0.75 1.18 1.615 3.25 3.865 3.25 0.672 0 10.945-0.05 11.375-0.02h0.01c0.131 0.02 0.25 0.02 0.381 0.02 2.021 0 3.909-1.19 4.729-2.64v9.271h-0.149c-0.08 1.489 1.561 2.92 0.979 4.22 2.64-0.01 2.46 9.99 3.05 9.99h0.109l0.131-18.47c0-2.94 1.148-4.37 1.74-4.37 3.459 0 11.238 4.45 11.238-3.92 0.003-0.001-0.168-1.711-0.298-1.821m-79.62 0.72l11.24-19.21h4.73l-7.83 19.21z m28.14 0H25.8l7.24-19.21h9.73z m4.86 0l1.24-19.21h5.729l1.17 19.21z m13 0l-1.76-19.21h9.729l7.17 19.21z m20 0l-7.76-19.21h4.729l11.17 19.21zM57.33 83.17h14v-0.64h-14z" fill="#ffff00" data-fill-palette-color="accent"></path><path d="M50.01 39.9c-0.7 0-1.36-0.14-1.98-0.4h3.96c-0.62 0.26-1.28 0.4-1.98 0.4" fill="#ffff00" data-fill-palette-color="accent"></path><path d="M79.5 46.5v26.33c0 6.63-5.37 12-12 12H32.17c-6.63 0-12-4.331-12-12V36.5c0 9.48 0.03 8.96 0.1 8.46 0.39-3.04 0.91 19.28 3.13 17.39l1-15.819 0.03 10c0.08 1.528 0.45 12.979 1.07 14.31 1.89 4.13 6.06 6.99 10.9 6.99h27.1a12 12 0 0 0 10.95-7.08c0.579-1.3 0.938-2.73 1.021-4.22l0.149-20v-3.87C78.01 44.86 79.5 43 79.5 46.5" fill="#ffff00" data-fill-palette-color="accent"></path><path d="M57.125 77.232a5.938 5.938 0 1 1-11.876 0v-10.13a5.938 5.938 0 1 1 11.876 0zM71.75 46.625a2.124 2.124 0 0 1-2.125 2.125h-39.25a2.124 2.124 0 1 1 0-4.25h39.25c1.174 0 2.125 0.951 2.125 2.125M71.75 53.625a2.124 2.124 0 0 1-2.125 2.125h-39.25a2.124 2.124 0 1 1 0-4.25h39.25c1.174 0 2.125 0.951 2.125 2.125" fill="#ffff00" data-fill-palette-color="accent"></path></svg></g><g transform="matrix(1,0,0,1,107.68241368253811,0)"><svg width="285.994140625" viewBox="1.9500000476837158 -36.84000015258789 176.75 48.290000915527344" height="78.13486328124999" data-palette-color="#fbfbf8"><path d="M24.1-9.4L24.1-9.4Q24.1-6.88 22.74-4.54 21.39-2.2 18.47-0.7 15.55 0.81 10.84 0.81L10.84 0.81Q8.15 0.81 6.15 0.34 4.15-0.12 3.05-0.59 1.95-1.05 1.95-1.05L1.95-1.05 1.95-9.91 5.1-9.91 5.76-4.25Q5.81-3.96 6.08-3.61 6.35-3.27 6.59-3.15L6.59-3.15Q6.71-3.13 8.02-2.56 9.33-2 11.65-2L11.65-2Q14.84-2 16.92-3.56 18.99-5.13 18.99-7.91L18.99-7.91Q18.99-9.42 18.15-10.56 17.31-11.69 15.97-12.57 14.62-13.45 13.1-14.17 11.57-14.89 10.21-15.55L10.21-15.55Q8.15-16.53 6.4-17.64 4.64-18.75 3.56-20.39 2.49-22.02 2.49-24.56L2.49-24.56Q2.49-27.54 4-29.74 5.52-31.93 8.13-33.14 10.74-34.35 14.04-34.35L14.04-34.35Q16.72-34.35 18.77-33.83 20.83-33.3 22.41-32.79L22.41-32.79 22.85-32.64 22.85-24.85 20-24.85 19.24-29.64Q19.19-29.98 18.93-30.14 18.68-30.3 18.46-30.52L18.46-30.52Q18.26-30.66 17.25-31.15 16.24-31.64 14.11-31.64L14.11-31.64Q11.11-31.64 9.38-29.97 7.64-28.3 7.64-25.76L7.64-25.76Q7.64-23.46 9.44-21.95 11.23-20.43 14.6-19.14L14.6-19.14Q19.14-17.43 21.62-15.3 24.1-13.16 24.1-9.4ZM53.59-1.95L53.59 0 42.45 0 42.45-1.95 44.5-2.1Q44.94-2.15 45.27-2.44 45.6-2.73 45.6-3.2L45.6-3.2 45.6-16.09Q45.6-18.24 44.58-19.64 43.55-21.04 40.65-21.04L40.65-21.04Q39.33-21.04 37.8-20.63 36.28-20.21 35.2-19.6L35.2-19.6 35.2-3.2Q35.2-2.17 36.2-2.1L36.2-2.1 38.35-1.95 38.35 0 27.1 0 27.1-1.95 29.49-2.1Q30.54-2.17 30.54-3.2L30.54-3.2 30.54-33.25 26.8-33.25 26.8-34.91 33.2-36.84 35.2-36.84 35.2-21.61Q36.11-22.17 37.55-22.89 38.99-23.61 40.57-24.16 42.16-24.71 43.45-24.71L43.45-24.71Q46.34-24.71 48.29-22.85 50.24-21 50.24-17.14L50.24-17.14 50.24-3.2Q50.24-2.73 50.57-2.44 50.9-2.15 51.34-2.1L51.34-2.1 53.59-1.95ZM80.24-12.01L80.24-12.01Q80.24-8.47 78.78-5.6 77.31-2.73 74.64-1.06 71.97 0.61 68.31 0.61L68.31 0.61Q64.67 0.61 62.01-1.05 59.35-2.71 57.91-5.57 56.46-8.42 56.46-12.01L56.46-12.01Q56.46-15.58 57.92-18.46 59.37-21.34 62.07-23.02 64.77-24.71 68.45-24.71L68.45-24.71Q72.19-24.71 74.82-23 77.46-21.29 78.85-18.41 80.24-15.53 80.24-12.01ZM75.04-12.06L75.04-12.06Q75.04-14.79 74.32-17.16 73.6-19.53 72.13-21 70.65-22.46 68.4-22.46L68.4-22.46Q66.08-22.46 64.61-21 63.13-19.53 62.42-17.16 61.71-14.79 61.71-12.06L61.71-12.06Q61.71-9.35 62.43-6.97 63.15-4.59 64.63-3.13 66.11-1.66 68.35-1.66L68.35-1.66Q70.65-1.66 72.13-3.13 73.6-4.59 74.32-6.96 75.04-9.33 75.04-12.06ZM108.2-12.4L108.2-12.4Q108.2-8.47 106.68-5.54 105.17-2.61 102.34-1 99.5 0.61 95.55 0.61L95.55 0.61Q94.65 0.61 93.61 0.49 92.57 0.37 91.84 0.26 91.11 0.15 91.11 0.15L91.11 0.15 91.11 7.59Q91.11 8.06 91.42 8.33 91.74 8.59 92.2 8.64L92.2 8.64 95.16 8.96 95.16 10.89 83 10.89 83 8.96 85.39 8.64Q86.44 8.57 86.44 7.59L86.44 7.59 86.44-20.56 83-20.56 83-22.19 89.15-24.1 91.11-24.1 91.11-21.61Q91.11-21.61 91.73-22.07 92.35-22.53 93.41-23.16 94.47-23.78 95.83-24.24 97.18-24.71 98.65-24.71L98.65-24.71Q101.24-24.71 103.4-23.18 105.56-21.66 106.88-18.9 108.2-16.14 108.2-12.4ZM103.19-11.69L103.19-11.69Q103.19-14.28 102.4-16.43 101.6-18.58 100.05-19.89 98.5-21.19 96.21-21.19L96.21-21.19Q94.96-21.19 93.79-20.83 92.62-20.46 91.86-20.08 91.11-19.7 91.11-19.7L91.11-19.7 91.11-2.49Q91.11-2.49 92.36-2.1 93.62-1.71 95.16-1.71L95.16-1.71Q97.92-1.71 99.69-3.13 101.46-4.54 102.32-6.82 103.19-9.11 103.19-11.69ZM136.15-12.4L136.15-12.4Q136.15-8.47 134.63-5.54 133.12-2.61 130.29-1 127.46 0.61 123.5 0.61L123.5 0.61Q122.6 0.61 121.56 0.49 120.52 0.37 119.79 0.26 119.06 0.15 119.06 0.15L119.06 0.15 119.06 7.59Q119.06 8.06 119.37 8.33 119.69 8.59 120.16 8.64L120.16 8.64 123.11 8.96 123.11 10.89 110.95 10.89 110.95 8.96 113.34 8.64Q114.39 8.57 114.39 7.59L114.39 7.59 114.39-20.56 110.95-20.56 110.95-22.19 117.1-24.1 119.06-24.1 119.06-21.61Q119.06-21.61 119.68-22.07 120.3-22.53 121.36-23.16 122.43-23.78 123.78-24.24 125.14-24.71 126.6-24.71L126.6-24.71Q129.19-24.71 131.35-23.18 133.51-21.66 134.83-18.9 136.15-16.14 136.15-12.4ZM131.14-11.69L131.14-11.69Q131.14-14.28 130.35-16.43 129.56-18.58 128.01-19.89 126.45-21.19 124.16-21.19L124.16-21.19Q122.91-21.19 121.74-20.83 120.57-20.46 119.81-20.08 119.06-19.7 119.06-19.7L119.06-19.7 119.06-2.49Q119.06-2.49 120.31-2.1 121.57-1.71 123.11-1.71L123.11-1.71Q125.87-1.71 127.64-3.13 129.41-4.54 130.28-6.82 131.14-9.11 131.14-11.69ZM151.35-1.95L151.35 0 139.2 0 139.2-1.95 141.86-2.1Q142.2-2.1 142.58-2.47 142.96-2.83 142.96-3.15L142.96-3.15 142.96-33.25 139.15-33.25 139.15-34.91 145.54-36.84 147.59-36.84 147.59-3.15Q147.59-2.83 147.96-2.47 148.33-2.1 148.64-2.1L148.64-2.1 151.35-1.95ZM178.7-24.1L178.7-22.14 176.08-21.85 166.49 1.54Q166.17 2.34 165.5 3.85 164.83 5.35 163.91 6.92 163 8.5 161.95 9.55L161.95 9.55Q161.04 10.45 159.96 10.95 158.87 11.45 157.6 11.45L157.6 11.45Q155.82 11.45 154.88 10.58 153.94 9.72 153.94 8.59L153.94 8.59Q153.94 6.93 155.55 5.59L155.55 5.59 160.24 7.74Q161.07 6.91 161.9 5.49 162.73 4.08 163.4 2.56 164.07 1.05 164.44-0.05L164.44-0.05 155.94-21.85 153.18-22.14 153.18-24.1 164.24-24.1 164.24-22.14 161.85-22Q161.04-21.92 161.04-21.19L161.04-21.19Q161.04-21 161.09-20.9L161.09-20.9 166.9-6.15 172.84-20.9Q172.91-21.04 172.91-21.22L172.91-21.22Q172.91-21.95 172.15-22L172.15-22 169.78-22.14 169.78-24.1 178.7-24.1Z" opacity="1" transform="matrix(1,0,0,1,0,0)" fill="#fbfbf8" class="wordmark-text-0" data-fill-palette-color="primary"></path></svg></g></svg></g></svg></g></svg></g></svg></g></svg></g><defs></defs></svg><rect width="393.67655430753814" height="78.13486328124999" fill="none" stroke="none" visibility="hidden"></rect></g></svg></g></g></g></g><rect width="405.67320961365294" height="90.13486767255063" x="118.16174668053497" y="155.9325599979416" rx="2.5" ry="2.5" fill="transparent" class="logo-element-hover-target"></rect></svg>